<mxfile host="Electron" agent="Mozilla/5.0 (Windows NT 10.0; Win64; x64) AppleWebKit/537.36 (KHTML, like Gecko) draw.io/28.1.2 Chrome/138.0.7204.243 Electron/37.4.0 Safari/537.36" version="28.1.2">
  <diagram name="Page-1" id="mTv6X0g3BZ0Pc5tQkWG_">
    <mxGraphModel dx="1042" dy="660" grid="1" gridSize="10" guides="1" tooltips="1" connect="1" arrows="1" fold="1" page="1" pageScale="1" pageWidth="850" pageHeight="1100" math="0" shadow="0">
      <root>
        <mxCell id="0" />
        <mxCell id="1" parent="0" />
        <mxCell id="ZzL3-Ag51YTz7BjcnZ4c-3" value="" style="edgeStyle=orthogonalEdgeStyle;rounded=0;orthogonalLoop=1;jettySize=auto;html=1;" parent="1" edge="1">
          <mxGeometry relative="1" as="geometry">
            <mxPoint x="425" y="110" as="targetPoint" />
            <mxPoint x="425" y="80" as="sourcePoint" />
          </mxGeometry>
        </mxCell>
        <mxCell id="ZzL3-Ag51YTz7BjcnZ4c-8" value="" style="edgeStyle=orthogonalEdgeStyle;rounded=0;orthogonalLoop=1;jettySize=auto;html=1;" parent="1" source="ZzL3-Ag51YTz7BjcnZ4c-6" target="ZzL3-Ag51YTz7BjcnZ4c-7" edge="1">
          <mxGeometry relative="1" as="geometry" />
        </mxCell>
        <mxCell id="ZzL3-Ag51YTz7BjcnZ4c-6" value="kelemahan_batman = {&quot;ketakutan_kehilangan&quot;, &quot;ketergantungan_alfred&quot;, &quot;rasa_bersalah_orang_tua&quot;}" style="rounded=1;whiteSpace=wrap;html=1;absoluteArcSize=1;arcSize=14;strokeWidth=2;" parent="1" vertex="1">
          <mxGeometry x="335" y="230" width="170" height="80" as="geometry" />
        </mxCell>
        <mxCell id="ZzL3-Ag51YTz7BjcnZ4c-10" value="" style="edgeStyle=orthogonalEdgeStyle;rounded=0;orthogonalLoop=1;jettySize=auto;html=1;" parent="1" source="ZzL3-Ag51YTz7BjcnZ4c-7" target="ZzL3-Ag51YTz7BjcnZ4c-9" edge="1">
          <mxGeometry relative="1" as="geometry" />
        </mxCell>
        <mxCell id="ZzL3-Ag51YTz7BjcnZ4c-14" style="edgeStyle=orthogonalEdgeStyle;rounded=0;orthogonalLoop=1;jettySize=auto;html=1;exitX=1;exitY=1;exitDx=0;exitDy=0;" parent="1" source="ZzL3-Ag51YTz7BjcnZ4c-7" edge="1">
          <mxGeometry relative="1" as="geometry">
            <mxPoint x="570" y="394" as="targetPoint" />
          </mxGeometry>
        </mxCell>
        <mxCell id="ZzL3-Ag51YTz7BjcnZ4c-7" value="&quot;Kelemahan Batman =&quot; &amp;amp; kelemahan_batman" style="shape=parallelogram;perimeter=parallelogramPerimeter;whiteSpace=wrap;html=1;fixedSize=1;rounded=1;absoluteArcSize=1;arcSize=14;strokeWidth=2;" parent="1" vertex="1">
          <mxGeometry x="325" y="340" width="190" height="60" as="geometry" />
        </mxCell>
        <mxCell id="ZzL3-Ag51YTz7BjcnZ4c-12" value="" style="edgeStyle=orthogonalEdgeStyle;rounded=0;orthogonalLoop=1;jettySize=auto;html=1;" parent="1" source="ZzL3-Ag51YTz7BjcnZ4c-9" target="ZzL3-Ag51YTz7BjcnZ4c-11" edge="1">
          <mxGeometry relative="1" as="geometry" />
        </mxCell>
        <mxCell id="ZzL3-Ag51YTz7BjcnZ4c-9" value="simbol_burung = &quot;lokasi_batcave_rahasia&quot;" style="rounded=1;whiteSpace=wrap;html=1;absoluteArcSize=1;arcSize=14;strokeWidth=2;" parent="1" vertex="1">
          <mxGeometry x="345" y="430" width="150" height="60" as="geometry" />
        </mxCell>
        <mxCell id="ZzL3-Ag51YTz7BjcnZ4c-13" style="edgeStyle=orthogonalEdgeStyle;rounded=0;orthogonalLoop=1;jettySize=auto;html=1;exitX=1;exitY=1;exitDx=0;exitDy=0;" parent="1" source="ZzL3-Ag51YTz7BjcnZ4c-11" edge="1">
          <mxGeometry relative="1" as="geometry">
            <mxPoint x="560" y="574" as="targetPoint" />
          </mxGeometry>
        </mxCell>
        <mxCell id="zCuVBa-7EOTGL3FOnBpB-3" value="" style="edgeStyle=orthogonalEdgeStyle;rounded=0;orthogonalLoop=1;jettySize=auto;html=1;" parent="1" source="ZzL3-Ag51YTz7BjcnZ4c-11" target="zCuVBa-7EOTGL3FOnBpB-1" edge="1">
          <mxGeometry relative="1" as="geometry" />
        </mxCell>
        <mxCell id="ZzL3-Ag51YTz7BjcnZ4c-11" value="&quot;(Riddler menambahkan kelemahan batman lagi)&quot;" style="shape=parallelogram;perimeter=parallelogramPerimeter;whiteSpace=wrap;html=1;fixedSize=1;rounded=1;absoluteArcSize=1;arcSize=14;strokeWidth=2;" parent="1" vertex="1">
          <mxGeometry x="335" y="520" width="170" height="60" as="geometry" />
        </mxCell>
        <mxCell id="ZzL3-Ag51YTz7BjcnZ4c-18" value="" style="edgeStyle=orthogonalEdgeStyle;rounded=0;orthogonalLoop=1;jettySize=auto;html=1;" parent="1" source="ZzL3-Ag51YTz7BjcnZ4c-15" edge="1">
          <mxGeometry relative="1" as="geometry">
            <mxPoint x="420" y="810" as="targetPoint" />
          </mxGeometry>
        </mxCell>
        <mxCell id="ZzL3-Ag51YTz7BjcnZ4c-19" style="edgeStyle=orthogonalEdgeStyle;rounded=0;orthogonalLoop=1;jettySize=auto;html=1;exitX=1;exitY=1;exitDx=0;exitDy=0;" parent="1" source="ZzL3-Ag51YTz7BjcnZ4c-15" edge="1">
          <mxGeometry relative="1" as="geometry">
            <mxPoint x="580" y="764" as="targetPoint" />
            <Array as="points">
              <mxPoint x="561" y="764" />
            </Array>
          </mxGeometry>
        </mxCell>
        <mxCell id="ZzL3-Ag51YTz7BjcnZ4c-15" value="&quot;Kelemahan Batman = &quot; &amp;amp; kelemahan_batman" style="shape=parallelogram;perimeter=parallelogramPerimeter;whiteSpace=wrap;html=1;fixedSize=1;rounded=1;absoluteArcSize=1;arcSize=14;strokeWidth=2;" parent="1" vertex="1">
          <mxGeometry x="335" y="710" width="170" height="60" as="geometry" />
        </mxCell>
        <mxCell id="zCuVBa-7EOTGL3FOnBpB-2" value="" style="edgeStyle=orthogonalEdgeStyle;rounded=0;orthogonalLoop=1;jettySize=auto;html=1;" parent="1" source="zCuVBa-7EOTGL3FOnBpB-1" target="ZzL3-Ag51YTz7BjcnZ4c-15" edge="1">
          <mxGeometry relative="1" as="geometry" />
        </mxCell>
        <mxCell id="zCuVBa-7EOTGL3FOnBpB-1" value="kelemahan_batman.add&lt;div&gt;(simbol_burung)&lt;/div&gt;" style="rounded=1;whiteSpace=wrap;html=1;absoluteArcSize=1;arcSize=14;strokeWidth=2;" parent="1" vertex="1">
          <mxGeometry x="345" y="610" width="150" height="60" as="geometry" />
        </mxCell>
        <mxCell id="zCuVBa-7EOTGL3FOnBpB-5" value="" style="edgeStyle=orthogonalEdgeStyle;rounded=0;orthogonalLoop=1;jettySize=auto;html=1;" parent="1" source="zCuVBa-7EOTGL3FOnBpB-4" target="ZzL3-Ag51YTz7BjcnZ4c-6" edge="1">
          <mxGeometry relative="1" as="geometry" />
        </mxCell>
        <mxCell id="zCuVBa-7EOTGL3FOnBpB-4" value="set(kelemahan_batman)&lt;div&gt;Str(simbol_burung)&lt;/div&gt;" style="shape=internalStorage;whiteSpace=wrap;html=1;dx=15;dy=15;rounded=1;arcSize=8;strokeWidth=2;" parent="1" vertex="1">
          <mxGeometry x="330" y="110" width="180" height="70" as="geometry" />
        </mxCell>
        <mxCell id="mXhSlvVMRVur2dMVcwMW-1" value="Start" style="strokeWidth=2;html=1;shape=mxgraph.flowchart.terminator;whiteSpace=wrap;" parent="1" vertex="1">
          <mxGeometry x="375" y="30" width="100" height="60" as="geometry" />
        </mxCell>
        <mxCell id="mXhSlvVMRVur2dMVcwMW-2" value="End" style="strokeWidth=2;html=1;shape=mxgraph.flowchart.terminator;whiteSpace=wrap;" parent="1" vertex="1">
          <mxGeometry x="370" y="810" width="100" height="60" as="geometry" />
        </mxCell>
      </root>
    </mxGraphModel>
  </diagram>
</mxfile>
